<svg width="32" height="21" viewBox="0 0 32 21" fill="none" xmlns="http://www.w3.org/2000/svg">
<path d="M21.4286 0.964844H2.14286C0.95939 0.964844 0 1.92423 0 3.1077V18.822C0 20.0055 0.95939 20.9648 2.14286 20.9648H21.4286C22.612 20.9648 23.5714 20.0055 23.5714 18.822V3.1077C23.5714 1.92423 22.612 0.964844 21.4286 0.964844Z" fill="#BE8D34"/>
<path d="M31.4286 3.82236V18.1081C31.4288 18.2339 31.3959 18.3576 31.3332 18.4666C31.2706 18.5757 31.1803 18.6664 31.0714 18.7295C30.9628 18.7918 30.8395 18.8238 30.7143 18.8224C30.5892 18.8229 30.4661 18.7909 30.3571 18.7295L25 15.6438V6.28665L30.3571 3.20093C30.4667 3.14118 30.5895 3.10986 30.7143 3.10986C30.8391 3.10986 30.9619 3.14118 31.0714 3.20093C31.1803 3.26406 31.2706 3.35472 31.3332 3.4638C31.3959 3.57289 31.4288 3.69655 31.4286 3.82236Z" fill="#BE8D34"/>
</svg>
