<svg width="69" height="53" viewBox="0 0 69 53" fill="none" xmlns="http://www.w3.org/2000/svg">
<g clip-path="url(#clip0_29_42)">
<path d="M0 52.6722C0.125781 52.654 0.233594 52.5812 0.305469 52.472C0.377344 52.3628 0.449219 52.2354 0.521094 52.0898L3.30625 46.1746C3.37812 46.0472 3.43203 45.9198 3.48594 45.8106C3.53984 45.7014 3.57578 45.6104 3.57578 45.5194C3.57578 45.4102 3.53984 45.3556 3.46797 45.301C3.39609 45.2646 3.32422 45.2282 3.23438 45.21V44.937H5.76797V45.21C5.69609 45.2282 5.62422 45.2646 5.55234 45.301C5.48047 45.3374 5.44453 45.4102 5.44453 45.5194C5.44453 45.5922 5.4625 45.6832 5.49844 45.756C5.53438 45.8288 5.58828 45.938 5.66016 46.0836L8.78672 52.2718C8.84062 52.381 8.9125 52.472 8.98438 52.5084C9.07422 52.563 9.16406 52.6176 9.27187 52.654V52.9271H6.66641V52.654C6.70234 52.654 6.75625 52.6358 6.81016 52.5994C6.86406 52.563 6.9 52.5266 6.9 52.4538C6.9 52.3446 6.86406 52.2172 6.77422 52.0534L6.19922 50.925H2.53359L1.99453 51.9988C1.88672 52.2172 1.85078 52.3628 1.85078 52.4538C1.85078 52.563 1.94062 52.6176 2.13828 52.6176V52.8907H0V52.6722ZM5.66016 49.8512L4.40234 47.0119L2.98281 49.8512H5.66016Z" fill="white"/>
<path d="M13.0988 50.4335L13.2426 50.5063C13.2426 50.5973 13.2605 50.6701 13.2965 50.7429C13.3684 50.8703 13.5121 50.9795 13.7098 51.1069C13.9074 51.2161 14.159 51.3253 14.4105 51.4163C14.6801 51.5073 14.9496 51.5801 15.2371 51.6347C15.5246 51.6893 15.7941 51.7257 16.0277 51.7257C16.1895 51.7257 16.423 51.7075 16.6926 51.6893C16.9621 51.6711 17.2316 51.6165 17.4832 51.5255C17.7348 51.4527 17.9684 51.3253 18.166 51.1979C18.3637 51.0523 18.4535 50.8703 18.4535 50.6337C18.4535 50.3971 18.3637 50.2333 18.184 50.1241C18.0043 50.0149 17.7707 49.9239 17.5012 49.8875C17.2137 49.8329 16.8902 49.7965 16.5309 49.7965C16.1715 49.7783 15.7941 49.7601 15.4168 49.7237C15.0395 49.6873 14.6621 49.6509 14.3027 49.5781C13.9434 49.5053 13.6199 49.3961 13.3324 49.2141C13.0449 49.0502 12.8113 48.8136 12.6496 48.5224C12.4699 48.2312 12.3801 47.849 12.3801 47.394C12.3801 47.0846 12.452 46.7752 12.5957 46.4658C12.7395 46.1564 12.9551 45.8834 13.2605 45.6649C13.566 45.4283 13.9434 45.2463 14.4105 45.1007C14.8777 44.9551 15.4168 44.8823 16.0277 44.8823C16.5668 44.8823 17.016 44.9187 17.4113 45.0097C17.8066 45.0825 18.148 45.1735 18.4176 45.2645C18.7051 45.3555 18.9387 45.4465 19.1363 45.5193C19.334 45.5921 19.4957 45.6467 19.6215 45.6467C19.7652 45.6467 19.8551 45.6103 19.927 45.5557L20.1066 45.6831L19.0645 47.5942L18.9207 47.5396C18.9027 47.394 18.8668 47.2848 18.7949 47.1938C18.723 47.0664 18.5793 46.9572 18.3996 46.8298C18.2199 46.7206 18.0043 46.6114 17.7527 46.5204C17.5012 46.4294 17.2316 46.3566 16.9441 46.302C16.6566 46.2474 16.3691 46.211 16.0637 46.211C15.848 46.211 15.6145 46.2292 15.3809 46.2656C15.1473 46.302 14.9316 46.3566 14.734 46.4294C14.5363 46.5022 14.3926 46.5932 14.2668 46.7024C14.141 46.8116 14.0871 46.9572 14.0871 47.1392C14.0871 47.3758 14.177 47.5578 14.3566 47.6852C14.5363 47.8126 14.7699 47.9036 15.0395 47.9582C15.327 48.0128 15.6504 48.0674 16.0098 48.0856C16.3691 48.1038 16.7465 48.1402 17.1238 48.1584C17.5012 48.1948 17.8785 48.2494 18.2379 48.3222C18.5973 48.395 18.9207 48.5224 19.2082 48.6862C19.4957 48.85 19.7293 49.0867 19.891 49.3597C20.0707 49.6509 20.1605 50.0149 20.1605 50.4699C20.1605 50.9977 20.0168 51.4345 19.7473 51.7621C19.4777 52.0897 19.1363 52.3627 18.723 52.563C18.3098 52.7632 17.8605 52.8906 17.3934 52.9452C16.9082 53.018 16.477 53.0362 16.0637 53.0362C15.4887 53.0362 15.0215 52.9998 14.6262 52.9452C14.2488 52.8724 13.9254 52.7996 13.6559 52.7086C13.4043 52.6176 13.1887 52.5266 13.0449 52.4538C12.9012 52.381 12.7574 52.3445 12.6496 52.3445C12.5777 52.3445 12.5059 52.3809 12.452 52.472L12.2363 52.3445L13.0988 50.4335Z" fill="white"/>
<path d="M31.2301 47.4121L30.9246 47.3211C30.9426 47.2665 30.9605 47.1937 30.9605 47.1391C30.9605 46.9935 30.8707 46.8479 30.691 46.7204C30.5113 46.593 30.2777 46.502 29.9902 46.411C29.7027 46.32 29.3973 46.2654 29.0559 46.229C28.7145 46.1926 28.409 46.1744 28.1035 46.1744C27.7262 46.1744 27.3668 46.229 27.0074 46.3382C26.648 46.4474 26.3246 46.6112 26.0371 46.8296C25.7496 47.0481 25.516 47.3393 25.3543 47.7033C25.1746 48.0673 25.0848 48.4859 25.0848 48.9955C25.0848 49.4869 25.1746 49.9237 25.3543 50.2878C25.534 50.6518 25.7676 50.943 26.0371 51.1614C26.3246 51.3798 26.648 51.5436 27.0074 51.6528C27.3668 51.762 27.7441 51.8166 28.1035 51.8166C28.6785 51.8166 29.1816 51.762 29.6488 51.671C30.098 51.58 30.4934 51.4708 30.8168 51.3616V50.0511H28.8941C28.7504 50.0511 28.6426 50.0875 28.5707 50.1421C28.4988 50.1968 28.4629 50.3424 28.427 50.5426H28.1574V48.5951H28.427C28.4449 48.7589 28.4988 48.8681 28.5707 48.9227C28.6426 48.9773 28.7504 48.9955 28.8941 48.9955H32.6496V49.2685C32.452 49.3049 32.3262 49.3413 32.2723 49.3777C32.2184 49.4141 32.2004 49.5051 32.2004 49.6325V51.3616C32.2004 51.4708 32.2363 51.5254 32.2902 51.5618C32.3441 51.5982 32.416 51.6346 32.5059 51.671V51.9076C32.1824 52.1442 31.823 52.3262 31.4637 52.49C31.1043 52.6356 30.727 52.763 30.3496 52.854C29.9723 52.945 29.5949 52.9996 29.2176 53.0178C28.8402 53.036 28.4809 53.0542 28.1215 53.0542C27.4207 53.0542 26.7738 52.9632 26.1988 52.7812C25.6238 52.5992 25.1207 52.3444 24.7254 51.9804C24.3121 51.6346 23.9887 51.1978 23.773 50.7064C23.5395 50.1968 23.4316 49.6325 23.4316 48.9955C23.4316 48.3585 23.5395 47.7761 23.773 47.2847C24.0066 46.775 24.3121 46.3564 24.7254 45.9924C25.1387 45.6284 25.6238 45.3736 26.1988 45.1734C26.7738 44.9914 27.4207 44.9004 28.1215 44.9004C28.5707 44.9004 28.984 44.9368 29.3793 44.9914C29.7746 45.046 30.134 45.1188 30.4395 45.1916C30.7449 45.2644 31.0145 45.3372 31.2121 45.41C31.4098 45.4828 31.5535 45.501 31.5895 45.501C31.6793 45.501 31.7512 45.4828 31.8051 45.4464C31.859 45.41 31.9129 45.3736 31.9488 45.3372L32.1285 45.4464L31.2301 47.4121Z" fill="white"/>
<path d="M35.4168 52.6722C35.5426 52.654 35.6504 52.5812 35.7223 52.472C35.7941 52.3628 35.866 52.2354 35.9379 52.0898L38.723 46.1746C38.7949 46.0472 38.8488 45.9198 38.9027 45.8106C38.9566 45.7014 38.9926 45.6104 38.9926 45.5194C38.9926 45.4102 38.9566 45.3556 38.8848 45.301C38.8129 45.2646 38.741 45.2282 38.6512 45.21V44.937H41.1848V45.21C41.1129 45.2282 41.041 45.2646 40.9691 45.301C40.8973 45.3374 40.8613 45.4102 40.8613 45.5194C40.8613 45.5922 40.8793 45.6832 40.9152 45.756C40.9512 45.8288 41.0051 45.938 41.077 46.0836L44.2035 52.2718C44.2574 52.381 44.3293 52.472 44.4012 52.5084C44.491 52.563 44.5809 52.6176 44.6887 52.654V52.9271H42.0473V52.654C42.0832 52.654 42.1371 52.6358 42.191 52.5994C42.2449 52.563 42.2809 52.5266 42.2809 52.4538C42.2809 52.3446 42.2449 52.2172 42.1551 52.0534L41.5801 50.925H37.9145L37.3754 51.9988C37.2676 52.2172 37.2316 52.3628 37.2316 52.4538C37.2316 52.563 37.3215 52.6176 37.5191 52.6176V52.8907H35.3809V52.6722H35.4168ZM41.077 49.8512L39.8191 47.0119L38.3996 49.8512H41.077Z" fill="white"/>
<path d="M52.9711 44.9368C53.4562 44.9368 53.8875 44.9732 54.2828 45.0642C54.6781 45.1552 55.0016 45.2826 55.2891 45.4828C55.5766 45.6648 55.7922 45.9196 55.9359 46.2108C56.0797 46.502 56.1695 46.8843 56.1695 47.3211C56.1695 47.9945 55.9719 48.5041 55.5766 48.8499C55.1812 49.2139 54.6602 49.4505 53.9953 49.5597L55.9898 52.4536C56.0617 52.5628 56.1336 52.6174 56.2414 52.6356C56.3312 52.6538 56.4211 52.672 56.5109 52.672V52.945H53.7078V52.672C53.7977 52.672 53.8695 52.6538 53.9414 52.6174C54.0133 52.581 54.0312 52.5446 54.0312 52.49C54.0312 52.4354 54.0133 52.3808 53.9773 52.308C53.9414 52.2352 53.8695 52.1442 53.7977 52.035L52.1445 49.6507H49.9883V52.3626C49.9883 52.4536 50.0242 52.5264 50.0781 52.5628C50.15 52.6174 50.2578 52.6356 50.4375 52.6356V52.9086H47.832V52.6356C48.1195 52.6356 48.2633 52.5446 48.2633 52.3626V45.4464C48.2633 45.2644 48.1195 45.1734 47.832 45.1734V44.9004H52.9711V44.9368ZM52.5758 48.5041C52.9352 48.5041 53.2406 48.4677 53.4742 48.4131C53.7078 48.3585 53.9055 48.2857 54.0492 48.1765C54.193 48.0673 54.2828 47.9581 54.3547 47.8125C54.4086 47.6669 54.4445 47.5213 54.4445 47.3575C54.4445 47.1937 54.4086 47.0481 54.3547 46.9025C54.3008 46.7568 54.193 46.6476 54.0492 46.5384C53.9055 46.4292 53.7258 46.3564 53.4742 46.3018C53.2406 46.2472 52.9352 46.2108 52.5758 46.2108H49.9703V48.4677H52.5758V48.5041Z" fill="white"/>
<path d="M65.0832 44.937C65.6402 44.937 66.1434 45.0098 66.6285 45.1736C67.0957 45.3374 67.509 45.574 67.8684 45.9198C68.2277 46.2475 68.4973 46.6661 68.6949 47.1757C68.8926 47.6853 69.0004 48.2677 69.0004 48.9411C69.0004 49.6146 68.8926 50.2152 68.6949 50.7066C68.4973 51.2162 68.2277 51.6166 67.8684 51.9624C67.509 52.29 67.0957 52.5448 66.6285 52.7086C66.1613 52.8725 65.6402 52.9453 65.0832 52.9453H60.0879V52.6722C60.3215 52.6722 60.4293 52.5812 60.4293 52.3992V45.483C60.4293 45.301 60.3215 45.21 60.0879 45.21V44.937H65.0832ZM64.4902 51.6348C64.9574 51.6348 65.3707 51.5984 65.7301 51.5074C66.0895 51.4346 66.377 51.289 66.6105 51.0706C66.8441 50.8704 67.0059 50.5792 67.1316 50.2334C67.2395 49.8876 67.3113 49.4507 67.3113 48.9229C67.3113 48.3951 67.2574 47.9583 67.1316 47.6125C67.0238 47.2667 66.8441 46.9937 66.6105 46.7753C66.377 46.5751 66.0895 46.4295 65.7301 46.3385C65.3707 46.2657 64.9754 46.2111 64.4902 46.2111H62.1543V51.5984H64.4902V51.6348Z" fill="white"/>
<path d="M34.3391 0C23.7914 0 15.2383 8.66346 15.2383 19.3472C15.2383 22.2957 15.8852 25.0804 17.0531 27.5738C17.125 27.5374 17.2148 27.5192 17.2867 27.4828C17.3406 27.4282 17.4125 27.3736 17.4664 27.319C16.3523 24.8984 15.7234 22.1865 15.7234 19.329C15.7234 8.91827 24.0609 0.491415 34.3391 0.491415C44.6172 0.491415 52.9547 8.93647 52.9547 19.3472C52.9547 22.2411 52.3078 24.9712 51.1578 27.4282C51.2836 27.5374 51.4094 27.6466 51.5352 27.7558C52.757 25.2078 53.4398 22.3685 53.4398 19.3472C53.4219 8.66346 44.8867 0 34.3391 0Z" fill="url(#paint0_linear_29_42)"/>
<path d="M53.5117 32.1787V37.6571C54.1227 37.9483 54.7336 38.2577 55.3266 38.5853V33.4527C54.7156 33.0341 54.1227 32.6155 53.5117 32.1787Z" fill="url(#paint1_linear_29_42)"/>
<path d="M50.6367 36.3829C51.1039 36.5831 51.5891 36.7651 52.0563 36.9836V31.0866C51.5711 30.7226 51.1039 30.3404 50.6367 29.9399V36.3829Z" fill="url(#paint2_linear_29_42)"/>
<path d="M47.7793 35.3271C48.2465 35.4727 48.7137 35.6365 49.1809 35.8003V28.6293C48.7137 28.2107 48.2465 27.7739 47.7793 27.3188V35.3271Z" fill="url(#paint3_linear_29_42)"/>
<path d="M44.9395 34.5082C45.4066 34.6174 45.8559 34.7448 46.323 34.8904V25.8811C45.8559 25.3897 45.4066 24.8983 44.9395 24.3887V34.5082Z" fill="url(#paint4_linear_29_42)"/>
<path d="M22.0117 34.8903C22.4789 34.7629 22.9461 34.6173 23.4312 34.5081V24.4614C22.9641 24.971 22.4969 25.4807 22.0117 25.9721V34.8903Z" fill="url(#paint5_linear_29_42)"/>
<path d="M19.1738 35.8187C19.623 35.6549 20.0902 35.4911 20.5574 35.3455V27.4282C20.1082 27.865 19.641 28.2836 19.1738 28.7023V35.8187Z" fill="url(#paint6_linear_29_42)"/>
<path d="M16.2793 36.9838C16.7465 36.7836 17.2316 36.5834 17.6988 36.3832V29.9766C17.2316 30.3588 16.7465 30.741 16.2793 31.1232V36.9838Z" fill="url(#paint7_linear_29_42)"/>
<path d="M13.0098 38.5668C13.6027 38.2392 14.2137 37.948 14.8246 37.6386V32.2148C14.2316 32.6517 13.6207 33.0703 13.0098 33.4707V38.5668Z" fill="url(#paint8_linear_29_42)"/>
<path d="M30.6191 33.507C32.1645 33.3068 34.7879 33.143 37.7348 33.5252C35.2191 30.3219 34.177 28.1196 34.177 28.1196C34.177 28.1196 33.1168 30.3037 30.6191 33.507Z" fill="#CA973B"/>
<path d="M42.0645 32.2512C42.5316 32.688 43.0168 33.1066 43.484 33.507V22.6777C42.9988 22.0953 42.5316 21.4947 42.0645 20.894V32.2512Z" fill="url(#paint9_linear_29_42)"/>
<path d="M39.209 29.4123C39.6582 29.9037 40.1434 30.3951 40.6105 30.8683V18.8924C40.1254 18.2008 39.6582 17.5091 39.209 16.7993V29.4123Z" fill="url(#paint10_linear_29_42)"/>
<path d="M36.3867 25.9539C36.818 26.5545 37.2672 27.1551 37.7344 27.7375V14.3965C37.2672 13.5957 36.818 12.7767 36.3867 11.9395V25.9539Z" fill="url(#paint11_linear_29_42)"/>
<path d="M34.9316 23.606V8.99092C34.3926 7.80788 33.8715 6.62484 33.4043 5.38721V23.6606C33.6918 23.1327 33.9613 22.6049 34.1949 22.0771C34.3926 22.5867 34.6441 23.0963 34.9316 23.606Z" fill="#CA973B"/>
<path d="M31.9305 12.2124C31.4812 13.0496 31.0141 13.8869 30.5469 14.7059V27.8103C31.032 27.2097 31.4992 26.609 31.9305 25.9902V12.2124Z" fill="url(#paint12_linear_29_42)"/>
<path d="M27.7441 30.8683C28.1934 30.4133 28.6426 29.9583 29.0918 29.485V17.0723C28.6605 17.7457 28.2113 18.4009 27.7441 19.0561V30.8683Z" fill="url(#paint13_linear_29_42)"/>
<path d="M24.8867 33.4889C25.3539 33.0884 25.8211 32.688 26.2703 32.2694V21.0215C25.8211 21.6039 25.3539 22.1863 24.8867 22.7505V33.4889Z" fill="url(#paint14_linear_29_42)"/>
</g>
<defs>
<linearGradient id="paint0_linear_29_42" x1="12.9754" y1="13.8741" x2="55.2789" y2="13.8741" gradientUnits="userSpaceOnUse">
<stop stop-color="#FEE3B2"/>
<stop offset="1" stop-color="#BE8D34"/>
</linearGradient>
<linearGradient id="paint1_linear_29_42" x1="12.9754" y1="35.3721" x2="55.2789" y2="35.3721" gradientUnits="userSpaceOnUse">
<stop stop-color="#FEE3B2"/>
<stop offset="1" stop-color="#BE8D34"/>
</linearGradient>
<linearGradient id="paint2_linear_29_42" x1="12.9753" y1="33.4513" x2="55.2789" y2="33.4513" gradientUnits="userSpaceOnUse">
<stop stop-color="#FEE3B2"/>
<stop offset="1" stop-color="#BE8D34"/>
</linearGradient>
<linearGradient id="paint3_linear_29_42" x1="12.975" y1="31.5785" x2="55.2785" y2="31.5785" gradientUnits="userSpaceOnUse">
<stop stop-color="#FEE3B2"/>
<stop offset="1" stop-color="#BE8D34"/>
</linearGradient>
<linearGradient id="paint4_linear_29_42" x1="12.9743" y1="29.6341" x2="55.2777" y2="29.6341" gradientUnits="userSpaceOnUse">
<stop stop-color="#FEE3B2"/>
<stop offset="1" stop-color="#BE8D34"/>
</linearGradient>
<linearGradient id="paint5_linear_29_42" x1="12.9747" y1="29.675" x2="55.278" y2="29.675" gradientUnits="userSpaceOnUse">
<stop stop-color="#FEE3B2"/>
<stop offset="1" stop-color="#BE8D34"/>
</linearGradient>
<linearGradient id="paint6_linear_29_42" x1="12.9758" y1="31.6214" x2="55.2793" y2="31.6214" gradientUnits="userSpaceOnUse">
<stop stop-color="#FEE3B2"/>
<stop offset="1" stop-color="#BE8D34"/>
</linearGradient>
<linearGradient id="paint7_linear_29_42" x1="12.9743" y1="33.4756" x2="55.2777" y2="33.4756" gradientUnits="userSpaceOnUse">
<stop stop-color="#FEE3B2"/>
<stop offset="1" stop-color="#BE8D34"/>
</linearGradient>
<linearGradient id="paint8_linear_29_42" x1="12.9751" y1="35.3916" x2="55.2785" y2="35.3916" gradientUnits="userSpaceOnUse">
<stop stop-color="#FEE3B2"/>
<stop offset="1" stop-color="#BE8D34"/>
</linearGradient>
<linearGradient id="paint9_linear_29_42" x1="12.9743" y1="27.1983" x2="55.2777" y2="27.1983" gradientUnits="userSpaceOnUse">
<stop stop-color="#FEE3B2"/>
<stop offset="1" stop-color="#BE8D34"/>
</linearGradient>
<linearGradient id="paint10_linear_29_42" x1="12.9758" y1="23.8334" x2="55.2793" y2="23.8334" gradientUnits="userSpaceOnUse">
<stop stop-color="#FEE3B2"/>
<stop offset="1" stop-color="#BE8D34"/>
</linearGradient>
<linearGradient id="paint11_linear_29_42" x1="12.9747" y1="19.8357" x2="55.2781" y2="19.8357" gradientUnits="userSpaceOnUse">
<stop stop-color="#FEE3B2"/>
<stop offset="1" stop-color="#BE8D34"/>
</linearGradient>
<linearGradient id="paint12_linear_29_42" x1="12.9747" y1="20.0145" x2="55.2781" y2="20.0145" gradientUnits="userSpaceOnUse">
<stop stop-color="#FEE3B2"/>
<stop offset="1" stop-color="#BE8D34"/>
</linearGradient>
<linearGradient id="paint13_linear_29_42" x1="12.9751" y1="23.9695" x2="55.2785" y2="23.9695" gradientUnits="userSpaceOnUse">
<stop stop-color="#FEE3B2"/>
<stop offset="1" stop-color="#BE8D34"/>
</linearGradient>
<linearGradient id="paint14_linear_29_42" x1="12.9747" y1="27.2594" x2="55.2781" y2="27.2594" gradientUnits="userSpaceOnUse">
<stop stop-color="#FEE3B2"/>
<stop offset="1" stop-color="#BE8D34"/>
</linearGradient>
<clipPath id="clip0_29_42">
<rect width="69" height="53" fill="white"/>
</clipPath>
</defs>
</svg>
